<mxfile host="app.diagrams.net" agent="Mozilla/5.0 (Windows NT 10.0; Win64; x64) AppleWebKit/537.36 (KHTML, like Gecko) Chrome/126.0.0.0 Safari/537.36" version="24.7.4">
  <diagram name="Page-1" id="b5b7bab2-c9e2-2cf4-8b2a-24fd1a2a6d21">
    <mxGraphModel dx="2647" dy="5150" grid="1" gridSize="10" guides="1" tooltips="1" connect="1" arrows="1" fold="1" page="1" pageScale="1" pageWidth="827" pageHeight="1169" background="none" math="0" shadow="0">
      <root>
        <mxCell id="0" />
        <mxCell id="1" parent="0" />
        <mxCell id="Hggh7xbr4pyCha5w0upt-12" style="edgeStyle=orthogonalEdgeStyle;rounded=0;orthogonalLoop=1;jettySize=auto;html=1;exitX=1;exitY=0.5;exitDx=0;exitDy=0;entryX=0;entryY=0.5;entryDx=0;entryDy=0;" parent="1" source="2KIOIuE71l9Fych7bbH_-1" edge="1" target="2KIOIuE71l9Fych7bbH_-42">
          <mxGeometry relative="1" as="geometry">
            <mxPoint x="1250" y="-380" as="targetPoint" />
          </mxGeometry>
        </mxCell>
        <mxCell id="Hggh7xbr4pyCha5w0upt-13" style="edgeStyle=orthogonalEdgeStyle;rounded=0;orthogonalLoop=1;jettySize=auto;html=1;entryX=0;entryY=0.5;entryDx=0;entryDy=0;" parent="1" source="2KIOIuE71l9Fych7bbH_-1" target="2KIOIuE71l9Fych7bbH_-37" edge="1">
          <mxGeometry relative="1" as="geometry" />
        </mxCell>
        <mxCell id="Hggh7xbr4pyCha5w0upt-14" style="edgeStyle=orthogonalEdgeStyle;rounded=0;orthogonalLoop=1;jettySize=auto;html=1;entryX=0;entryY=0.5;entryDx=0;entryDy=0;" parent="1" source="2KIOIuE71l9Fych7bbH_-1" target="2KIOIuE71l9Fych7bbH_-30" edge="1">
          <mxGeometry relative="1" as="geometry" />
        </mxCell>
        <mxCell id="Hggh7xbr4pyCha5w0upt-18" style="edgeStyle=orthogonalEdgeStyle;rounded=0;orthogonalLoop=1;jettySize=auto;html=1;entryX=0;entryY=0.5;entryDx=0;entryDy=0;" parent="1" source="2KIOIuE71l9Fych7bbH_-1" target="Hggh7xbr4pyCha5w0upt-15" edge="1">
          <mxGeometry relative="1" as="geometry" />
        </mxCell>
        <mxCell id="8pSa43I6UidACVbnx78g-10" style="edgeStyle=orthogonalEdgeStyle;rounded=0;orthogonalLoop=1;jettySize=auto;html=1;entryX=0;entryY=0.5;entryDx=0;entryDy=0;" edge="1" parent="1" source="2KIOIuE71l9Fych7bbH_-1" target="8pSa43I6UidACVbnx78g-7">
          <mxGeometry relative="1" as="geometry" />
        </mxCell>
        <mxCell id="8pSa43I6UidACVbnx78g-19" style="edgeStyle=orthogonalEdgeStyle;rounded=0;orthogonalLoop=1;jettySize=auto;html=1;exitX=1;exitY=0.5;exitDx=0;exitDy=0;entryX=0;entryY=0.5;entryDx=0;entryDy=0;" edge="1" parent="1" source="2KIOIuE71l9Fych7bbH_-1" target="8pSa43I6UidACVbnx78g-15">
          <mxGeometry relative="1" as="geometry" />
        </mxCell>
        <mxCell id="8pSa43I6UidACVbnx78g-23" style="edgeStyle=orthogonalEdgeStyle;rounded=0;orthogonalLoop=1;jettySize=auto;html=1;entryX=0;entryY=0.5;entryDx=0;entryDy=0;" edge="1" parent="1" source="2KIOIuE71l9Fych7bbH_-1" target="8pSa43I6UidACVbnx78g-20">
          <mxGeometry relative="1" as="geometry">
            <mxPoint x="900" y="-660" as="targetPoint" />
          </mxGeometry>
        </mxCell>
        <mxCell id="2KIOIuE71l9Fych7bbH_-1" value="USER_LOGIN" style="swimlane;whiteSpace=wrap;html=1;startSize=70;" parent="1" vertex="1">
          <mxGeometry x="425" y="-460" width="290" height="350" as="geometry" />
        </mxCell>
        <mxCell id="2KIOIuE71l9Fych7bbH_-2" value="&lt;font style=&quot;font-size: 18px;&quot;&gt;UserName&lt;/font&gt;&lt;div&gt;&lt;font size=&quot;3&quot;&gt;UserId&lt;/font&gt;&lt;/div&gt;&lt;div&gt;&lt;font size=&quot;3&quot;&gt;Email_Address&lt;/font&gt;&lt;/div&gt;&lt;div&gt;&lt;font size=&quot;3&quot;&gt;Phone_number&lt;/font&gt;&lt;/div&gt;&lt;div&gt;&lt;font size=&quot;3&quot;&gt;Password&lt;/font&gt;&lt;/div&gt;" style="text;html=1;align=center;verticalAlign=middle;resizable=0;points=[];autosize=1;strokeColor=none;fillColor=none;" parent="2KIOIuE71l9Fych7bbH_-1" vertex="1">
          <mxGeometry x="70" y="120" width="130" height="110" as="geometry" />
        </mxCell>
        <mxCell id="2KIOIuE71l9Fych7bbH_-5" value="&lt;font style=&quot;font-size: 18px;&quot;&gt;Sign_Up&lt;/font&gt;&lt;div&gt;&lt;font size=&quot;3&quot;&gt;Log_in&lt;/font&gt;&lt;/div&gt;" style="text;html=1;align=center;verticalAlign=middle;resizable=0;points=[];autosize=1;strokeColor=none;fillColor=none;" parent="2KIOIuE71l9Fych7bbH_-1" vertex="1">
          <mxGeometry x="90" y="270" width="90" height="50" as="geometry" />
        </mxCell>
        <mxCell id="2KIOIuE71l9Fych7bbH_-4" value="" style="endArrow=none;html=1;rounded=0;entryX=1;entryY=0.75;entryDx=0;entryDy=0;exitX=0;exitY=0.75;exitDx=0;exitDy=0;" parent="1" source="2KIOIuE71l9Fych7bbH_-1" target="2KIOIuE71l9Fych7bbH_-1" edge="1">
          <mxGeometry width="50" height="50" relative="1" as="geometry">
            <mxPoint x="250" y="420" as="sourcePoint" />
            <mxPoint x="300" y="370" as="targetPoint" />
          </mxGeometry>
        </mxCell>
        <mxCell id="2KIOIuE71l9Fych7bbH_-29" style="edgeStyle=orthogonalEdgeStyle;rounded=0;orthogonalLoop=1;jettySize=auto;html=1;entryX=0.5;entryY=1;entryDx=0;entryDy=0;" parent="1" source="2KIOIuE71l9Fych7bbH_-6" target="2KIOIuE71l9Fych7bbH_-1" edge="1">
          <mxGeometry relative="1" as="geometry" />
        </mxCell>
        <mxCell id="2KIOIuE71l9Fych7bbH_-6" value="ADMIN" style="swimlane;whiteSpace=wrap;html=1;startSize=70;" parent="1" vertex="1">
          <mxGeometry x="680" y="585" width="290" height="355" as="geometry" />
        </mxCell>
        <mxCell id="2KIOIuE71l9Fych7bbH_-7" value="&lt;font size=&quot;3&quot;&gt;User_Email&lt;/font&gt;&lt;div&gt;&lt;font size=&quot;3&quot;&gt;Password&lt;/font&gt;&lt;/div&gt;&lt;div&gt;&lt;font size=&quot;3&quot;&gt;Role&lt;/font&gt;&lt;/div&gt;" style="text;html=1;align=center;verticalAlign=middle;resizable=0;points=[];autosize=1;strokeColor=none;fillColor=none;" parent="2KIOIuE71l9Fych7bbH_-6" vertex="1">
          <mxGeometry x="90" y="165" width="110" height="70" as="geometry" />
        </mxCell>
        <mxCell id="2KIOIuE71l9Fych7bbH_-9" value="&lt;font style=&quot;font-size: 12px;&quot;&gt;create&lt;/font&gt;&lt;div&gt;&lt;font size=&quot;3&quot;&gt;Delete&lt;/font&gt;&lt;/div&gt;&lt;div&gt;&lt;font size=&quot;3&quot;&gt;Update Datas&lt;/font&gt;&lt;/div&gt;" style="text;html=1;align=center;verticalAlign=middle;resizable=0;points=[];autosize=1;strokeColor=none;fillColor=none;" parent="2KIOIuE71l9Fych7bbH_-6" vertex="1">
          <mxGeometry x="95" y="270" width="120" height="70" as="geometry" />
        </mxCell>
        <mxCell id="2KIOIuE71l9Fych7bbH_-8" value="" style="endArrow=none;html=1;rounded=0;exitX=0;exitY=0.75;exitDx=0;exitDy=0;entryX=1;entryY=0.75;entryDx=0;entryDy=0;" parent="1" source="2KIOIuE71l9Fych7bbH_-6" target="2KIOIuE71l9Fych7bbH_-6" edge="1">
          <mxGeometry width="50" height="50" relative="1" as="geometry">
            <mxPoint x="780" y="880" as="sourcePoint" />
            <mxPoint x="920" y="860" as="targetPoint" />
          </mxGeometry>
        </mxCell>
        <mxCell id="2KIOIuE71l9Fych7bbH_-27" style="edgeStyle=orthogonalEdgeStyle;rounded=0;orthogonalLoop=1;jettySize=auto;html=1;exitX=0.5;exitY=0;exitDx=0;exitDy=0;entryX=0.5;entryY=1;entryDx=0;entryDy=0;" parent="1" source="2KIOIuE71l9Fych7bbH_-18" target="2KIOIuE71l9Fych7bbH_-1" edge="1">
          <mxGeometry relative="1" as="geometry" />
        </mxCell>
        <mxCell id="2KIOIuE71l9Fych7bbH_-18" value="Customer" style="swimlane;whiteSpace=wrap;html=1;startSize=70;" parent="1" vertex="1">
          <mxGeometry x="160" y="580" width="290" height="355" as="geometry" />
        </mxCell>
        <mxCell id="2KIOIuE71l9Fych7bbH_-19" value="&lt;font size=&quot;3&quot;&gt;User_Email&lt;/font&gt;&lt;div&gt;&lt;font size=&quot;3&quot;&gt;User_Password&lt;/font&gt;&lt;/div&gt;&lt;div&gt;&lt;font size=&quot;3&quot;&gt;Role&lt;/font&gt;&lt;/div&gt;" style="text;html=1;align=center;verticalAlign=middle;resizable=0;points=[];autosize=1;strokeColor=none;fillColor=none;" parent="2KIOIuE71l9Fych7bbH_-18" vertex="1">
          <mxGeometry x="75" y="165" width="140" height="70" as="geometry" />
        </mxCell>
        <mxCell id="2KIOIuE71l9Fych7bbH_-20" value="&lt;font style=&quot;font-size: 12px;&quot;&gt;create&lt;/font&gt;&lt;div&gt;&lt;font size=&quot;3&quot;&gt;Delete&lt;/font&gt;&lt;/div&gt;&lt;div&gt;&lt;font size=&quot;3&quot;&gt;Update Datas&lt;/font&gt;&lt;/div&gt;" style="text;html=1;align=center;verticalAlign=middle;resizable=0;points=[];autosize=1;strokeColor=none;fillColor=none;" parent="2KIOIuE71l9Fych7bbH_-18" vertex="1">
          <mxGeometry x="95" y="270" width="120" height="70" as="geometry" />
        </mxCell>
        <mxCell id="2KIOIuE71l9Fych7bbH_-21" value="" style="endArrow=none;html=1;rounded=0;exitX=0;exitY=0.75;exitDx=0;exitDy=0;entryX=1;entryY=0.75;entryDx=0;entryDy=0;" parent="1" source="2KIOIuE71l9Fych7bbH_-18" target="2KIOIuE71l9Fych7bbH_-18" edge="1">
          <mxGeometry width="50" height="50" relative="1" as="geometry">
            <mxPoint x="790" y="890" as="sourcePoint" />
            <mxPoint x="930" y="870" as="targetPoint" />
          </mxGeometry>
        </mxCell>
        <mxCell id="Hggh7xbr4pyCha5w0upt-5" style="edgeStyle=orthogonalEdgeStyle;rounded=0;orthogonalLoop=1;jettySize=auto;html=1;exitX=0.5;exitY=1;exitDx=0;exitDy=0;" parent="1" source="2KIOIuE71l9Fych7bbH_-22" edge="1">
          <mxGeometry relative="1" as="geometry">
            <mxPoint x="570" y="-460" as="targetPoint" />
          </mxGeometry>
        </mxCell>
        <mxCell id="2KIOIuE71l9Fych7bbH_-22" value="USER" style="swimlane;whiteSpace=wrap;html=1;startSize=70;" parent="1" vertex="1">
          <mxGeometry x="390" y="-1140" width="290" height="350" as="geometry" />
        </mxCell>
        <mxCell id="2KIOIuE71l9Fych7bbH_-23" value="&lt;span style=&quot;font-size: 18px;&quot;&gt;Role&lt;/span&gt;&lt;div&gt;&lt;span style=&quot;font-size: 18px;&quot;&gt;Email&lt;/span&gt;&lt;/div&gt;&lt;div&gt;&lt;span style=&quot;font-size: 18px;&quot;&gt;username&lt;/span&gt;&lt;/div&gt;&lt;div&gt;&lt;span style=&quot;font-size: 18px;&quot;&gt;MobileNumber&lt;/span&gt;&lt;/div&gt;&lt;div&gt;&lt;span style=&quot;font-size: 18px;&quot;&gt;Password&lt;/span&gt;&lt;/div&gt;&lt;div&gt;&lt;span style=&quot;font-size: 18px;&quot;&gt;Confirm Password&lt;/span&gt;&lt;/div&gt;" style="text;html=1;align=center;verticalAlign=middle;resizable=0;points=[];autosize=1;strokeColor=none;fillColor=none;" parent="2KIOIuE71l9Fych7bbH_-22" vertex="1">
          <mxGeometry x="50" y="105" width="170" height="140" as="geometry" />
        </mxCell>
        <mxCell id="2KIOIuE71l9Fych7bbH_-24" value="&lt;span style=&quot;font-size: 18px;&quot;&gt;DETAILS&lt;/span&gt;" style="text;html=1;align=center;verticalAlign=middle;resizable=0;points=[];autosize=1;strokeColor=none;fillColor=none;" parent="2KIOIuE71l9Fych7bbH_-22" vertex="1">
          <mxGeometry x="85" y="275" width="100" height="40" as="geometry" />
        </mxCell>
        <mxCell id="2KIOIuE71l9Fych7bbH_-25" value="" style="endArrow=none;html=1;rounded=0;entryX=1;entryY=0.75;entryDx=0;entryDy=0;exitX=0;exitY=0.75;exitDx=0;exitDy=0;" parent="1" source="2KIOIuE71l9Fych7bbH_-22" target="2KIOIuE71l9Fych7bbH_-22" edge="1">
          <mxGeometry width="50" height="50" relative="1" as="geometry">
            <mxPoint x="460" y="-380" as="sourcePoint" />
            <mxPoint x="510" y="-430" as="targetPoint" />
          </mxGeometry>
        </mxCell>
        <mxCell id="2KIOIuE71l9Fych7bbH_-37" value="Loan_Status" style="swimlane;whiteSpace=wrap;html=1;startSize=70;" parent="1" vertex="1">
          <mxGeometry x="1241" y="-1980" width="290" height="355" as="geometry" />
        </mxCell>
        <mxCell id="2KIOIuE71l9Fych7bbH_-38" value="&lt;div&gt;&lt;font size=&quot;3&quot;&gt;Payment_Id&lt;/font&gt;&lt;/div&gt;&lt;div&gt;&lt;font size=&quot;3&quot;&gt;Payment_Method&lt;/font&gt;&lt;/div&gt;&lt;div&gt;&lt;font size=&quot;3&quot;&gt;Payment_Date&lt;/font&gt;&lt;/div&gt;&lt;div&gt;&lt;font size=&quot;3&quot;&gt;Payment_&lt;/font&gt;&lt;/div&gt;" style="text;html=1;align=center;verticalAlign=middle;resizable=0;points=[];autosize=1;strokeColor=none;fillColor=none;" parent="2KIOIuE71l9Fych7bbH_-37" vertex="1">
          <mxGeometry x="70" y="155" width="150" height="90" as="geometry" />
        </mxCell>
        <mxCell id="2KIOIuE71l9Fych7bbH_-39" value="Payment Details can Modify the user" style="text;html=1;align=center;verticalAlign=middle;resizable=0;points=[];autosize=1;strokeColor=none;fillColor=none;" parent="2KIOIuE71l9Fych7bbH_-37" vertex="1">
          <mxGeometry x="45" y="290" width="220" height="30" as="geometry" />
        </mxCell>
        <mxCell id="2KIOIuE71l9Fych7bbH_-40" value="" style="endArrow=none;html=1;rounded=0;exitX=0;exitY=0.75;exitDx=0;exitDy=0;entryX=1;entryY=0.75;entryDx=0;entryDy=0;" parent="1" source="2KIOIuE71l9Fych7bbH_-37" target="2KIOIuE71l9Fych7bbH_-37" edge="1">
          <mxGeometry width="50" height="50" relative="1" as="geometry">
            <mxPoint x="480" y="2000" as="sourcePoint" />
            <mxPoint x="530" y="1950" as="targetPoint" />
          </mxGeometry>
        </mxCell>
        <mxCell id="2KIOIuE71l9Fych7bbH_-42" value="Profile" style="swimlane;whiteSpace=wrap;html=1;startSize=70;" parent="1" vertex="1">
          <mxGeometry x="1570" y="-605" width="290" height="355" as="geometry" />
        </mxCell>
        <mxCell id="2KIOIuE71l9Fych7bbH_-43" value="&lt;font size=&quot;3&quot;&gt;No.of Products&lt;/font&gt;&lt;div&gt;&lt;font size=&quot;3&quot;&gt;Product iD&lt;/font&gt;&lt;/div&gt;&lt;div&gt;&lt;font size=&quot;3&quot;&gt;Product_Description&lt;/font&gt;&lt;/div&gt;&lt;div&gt;&lt;font size=&quot;3&quot;&gt;Product_Price&lt;/font&gt;&lt;/div&gt;" style="text;html=1;align=center;verticalAlign=middle;resizable=0;points=[];autosize=1;strokeColor=none;fillColor=none;" parent="2KIOIuE71l9Fych7bbH_-42" vertex="1">
          <mxGeometry x="60" y="155" width="170" height="90" as="geometry" />
        </mxCell>
        <mxCell id="2KIOIuE71l9Fych7bbH_-44" value="Product_details" style="text;html=1;align=center;verticalAlign=middle;resizable=0;points=[];autosize=1;strokeColor=none;fillColor=none;" parent="2KIOIuE71l9Fych7bbH_-42" vertex="1">
          <mxGeometry x="100" y="290" width="110" height="30" as="geometry" />
        </mxCell>
        <mxCell id="2KIOIuE71l9Fych7bbH_-46" value="" style="endArrow=none;html=1;rounded=0;exitX=0;exitY=0.75;exitDx=0;exitDy=0;entryX=1;entryY=0.75;entryDx=0;entryDy=0;" parent="1" source="2KIOIuE71l9Fych7bbH_-42" target="2KIOIuE71l9Fych7bbH_-42" edge="1">
          <mxGeometry width="50" height="50" relative="1" as="geometry">
            <mxPoint x="1050" y="1570" as="sourcePoint" />
            <mxPoint x="1240" y="1520" as="targetPoint" />
          </mxGeometry>
        </mxCell>
        <mxCell id="2KIOIuE71l9Fych7bbH_-57" style="edgeStyle=orthogonalEdgeStyle;rounded=0;orthogonalLoop=1;jettySize=auto;html=1;" parent="1" source="2KIOIuE71l9Fych7bbH_-56" edge="1">
          <mxGeometry relative="1" as="geometry">
            <mxPoint x="680" y="800" as="targetPoint" />
          </mxGeometry>
        </mxCell>
        <mxCell id="2KIOIuE71l9Fych7bbH_-59" style="edgeStyle=orthogonalEdgeStyle;rounded=0;orthogonalLoop=1;jettySize=auto;html=1;exitX=0;exitY=0.5;exitDx=0;exitDy=0;" parent="1" source="2KIOIuE71l9Fych7bbH_-56" edge="1">
          <mxGeometry relative="1" as="geometry">
            <mxPoint x="150" y="776.2857142857147" as="targetPoint" />
          </mxGeometry>
        </mxCell>
        <mxCell id="2KIOIuE71l9Fych7bbH_-56" value="LOGIN" style="rhombus;whiteSpace=wrap;html=1;" parent="1" vertex="1">
          <mxGeometry x="530" y="735" width="80" height="80" as="geometry" />
        </mxCell>
        <mxCell id="2KIOIuE71l9Fych7bbH_-60" value="If no" style="text;html=1;align=center;verticalAlign=middle;resizable=0;points=[];autosize=1;strokeColor=none;fillColor=none;" parent="1" vertex="1">
          <mxGeometry x="455" y="718" width="50" height="30" as="geometry" />
        </mxCell>
        <mxCell id="2KIOIuE71l9Fych7bbH_-61" value="If No" style="text;html=1;align=center;verticalAlign=middle;resizable=0;points=[];autosize=1;strokeColor=none;fillColor=none;" parent="1" vertex="1">
          <mxGeometry x="615" y="718" width="50" height="30" as="geometry" />
        </mxCell>
        <mxCell id="Hggh7xbr4pyCha5w0upt-6" value="LOGIN" style="text;html=1;align=center;verticalAlign=middle;resizable=0;points=[];autosize=1;strokeColor=none;fillColor=none;" parent="1" vertex="1">
          <mxGeometry x="545" y="-660" width="60" height="30" as="geometry" />
        </mxCell>
        <mxCell id="Hggh7xbr4pyCha5w0upt-7" value="Actor" style="shape=umlActor;verticalLabelPosition=bottom;verticalAlign=top;html=1;outlineConnect=0;" parent="1" vertex="1">
          <mxGeometry x="500" y="-1460" width="30" height="60" as="geometry" />
        </mxCell>
        <mxCell id="Hggh7xbr4pyCha5w0upt-8" value="" style="endArrow=classic;html=1;rounded=0;" parent="1" edge="1">
          <mxGeometry width="50" height="50" relative="1" as="geometry">
            <mxPoint x="520" y="-1350" as="sourcePoint" />
            <mxPoint x="520" y="-1150" as="targetPoint" />
          </mxGeometry>
        </mxCell>
        <mxCell id="Hggh7xbr4pyCha5w0upt-9" value="Register" style="text;html=1;align=center;verticalAlign=middle;resizable=0;points=[];autosize=1;strokeColor=none;fillColor=none;" parent="1" vertex="1">
          <mxGeometry x="530" y="-1260" width="70" height="30" as="geometry" />
        </mxCell>
        <mxCell id="2KIOIuE71l9Fych7bbH_-30" value="Apply_Loan" style="swimlane;whiteSpace=wrap;html=1;startSize=90;" parent="1" vertex="1">
          <mxGeometry x="1290" y="-140" width="290" height="450" as="geometry" />
        </mxCell>
        <mxCell id="2KIOIuE71l9Fych7bbH_-31" value="&lt;div&gt;&lt;font size=&quot;3&quot;&gt;Applicant_Name&lt;/font&gt;&lt;/div&gt;&lt;div&gt;&lt;font size=&quot;3&quot;&gt;Applicant_Address&lt;/font&gt;&lt;/div&gt;&lt;div&gt;&lt;font size=&quot;3&quot;&gt;Mobile&lt;/font&gt;&lt;/div&gt;&lt;div&gt;&lt;font size=&quot;3&quot;&gt;Email_Id&lt;/font&gt;&lt;/div&gt;&lt;div&gt;&lt;font size=&quot;3&quot;&gt;Addhar_No&lt;/font&gt;&lt;/div&gt;&lt;div&gt;&lt;font size=&quot;3&quot;&gt;PAN_No&lt;/font&gt;&lt;/div&gt;&lt;div&gt;&lt;font size=&quot;3&quot;&gt;Salary&lt;/font&gt;&lt;/div&gt;&lt;div&gt;&lt;font size=&quot;3&quot;&gt;Loan_Amount&lt;/font&gt;&lt;/div&gt;&lt;div&gt;&lt;font size=&quot;3&quot;&gt;Loan_Repayment&lt;/font&gt;&lt;/div&gt;" style="text;html=1;align=center;verticalAlign=middle;resizable=0;points=[];autosize=1;strokeColor=none;fillColor=none;" parent="2KIOIuE71l9Fych7bbH_-30" vertex="1">
          <mxGeometry x="70" y="110" width="160" height="190" as="geometry" />
        </mxCell>
        <mxCell id="8pSa43I6UidACVbnx78g-2" value="(User view)&amp;nbsp; Loan Apllication Details" style="text;html=1;align=center;verticalAlign=middle;resizable=0;points=[];autosize=1;strokeColor=none;fillColor=none;" vertex="1" parent="2KIOIuE71l9Fych7bbH_-30">
          <mxGeometry x="31" y="370" width="210" height="30" as="geometry" />
        </mxCell>
        <mxCell id="Hggh7xbr4pyCha5w0upt-15" value="Log_OUT" style="swimlane;whiteSpace=wrap;html=1;startSize=70;" parent="1" vertex="1">
          <mxGeometry x="1830" y="-2370" width="290" height="355" as="geometry" />
        </mxCell>
        <mxCell id="Hggh7xbr4pyCha5w0upt-17" value="LOG_OUTING (USER/ADMIN)" style="text;html=1;align=center;verticalAlign=middle;resizable=0;points=[];autosize=1;strokeColor=none;fillColor=none;" parent="Hggh7xbr4pyCha5w0upt-15" vertex="1">
          <mxGeometry x="60" y="190" width="190" height="30" as="geometry" />
        </mxCell>
        <mxCell id="8pSa43I6UidACVbnx78g-1" value="" style="endArrow=none;html=1;rounded=0;entryX=1;entryY=0.75;entryDx=0;entryDy=0;exitX=0;exitY=0.75;exitDx=0;exitDy=0;" edge="1" parent="1" source="2KIOIuE71l9Fych7bbH_-30" target="2KIOIuE71l9Fych7bbH_-30">
          <mxGeometry width="50" height="50" relative="1" as="geometry">
            <mxPoint x="1330" y="250" as="sourcePoint" />
            <mxPoint x="1380" y="200" as="targetPoint" />
          </mxGeometry>
        </mxCell>
        <mxCell id="8pSa43I6UidACVbnx78g-7" value="Apply_Loan" style="swimlane;whiteSpace=wrap;html=1;startSize=90;" vertex="1" parent="1">
          <mxGeometry x="1720" y="290" width="290" height="450" as="geometry" />
        </mxCell>
        <mxCell id="8pSa43I6UidACVbnx78g-8" value="&lt;div&gt;&lt;div&gt;&lt;font size=&quot;3&quot;&gt;Applicant_Name&lt;/font&gt;&lt;/div&gt;&lt;div&gt;&lt;font size=&quot;3&quot;&gt;Applicant_Address&lt;/font&gt;&lt;/div&gt;&lt;div&gt;&lt;font size=&quot;3&quot;&gt;Mobile&lt;/font&gt;&lt;/div&gt;&lt;div&gt;&lt;font size=&quot;3&quot;&gt;Email_Id&lt;/font&gt;&lt;/div&gt;&lt;div&gt;&lt;font size=&quot;3&quot;&gt;Addhar_No&lt;/font&gt;&lt;/div&gt;&lt;div&gt;&lt;font size=&quot;3&quot;&gt;PAN_No&lt;/font&gt;&lt;/div&gt;&lt;div&gt;&lt;font size=&quot;3&quot;&gt;Salary&lt;/font&gt;&lt;/div&gt;&lt;div&gt;&lt;font size=&quot;3&quot;&gt;Loan_Amount&lt;/font&gt;&lt;/div&gt;&lt;div&gt;&lt;font size=&quot;3&quot;&gt;Loan_Repayment&lt;/font&gt;&lt;/div&gt;&lt;/div&gt;" style="text;html=1;align=center;verticalAlign=middle;resizable=0;points=[];autosize=1;strokeColor=none;fillColor=none;" vertex="1" parent="8pSa43I6UidACVbnx78g-7">
          <mxGeometry x="70" y="110" width="160" height="190" as="geometry" />
        </mxCell>
        <mxCell id="8pSa43I6UidACVbnx78g-14" value="(Admin can Approve,Delete)" style="text;html=1;align=center;verticalAlign=middle;resizable=0;points=[];autosize=1;strokeColor=none;fillColor=none;" vertex="1" parent="8pSa43I6UidACVbnx78g-7">
          <mxGeometry x="70" y="370" width="170" height="30" as="geometry" />
        </mxCell>
        <mxCell id="8pSa43I6UidACVbnx78g-11" value="User View" style="text;html=1;align=center;verticalAlign=middle;resizable=0;points=[];autosize=1;strokeColor=none;fillColor=none;" vertex="1" parent="1">
          <mxGeometry x="1100" y="40" width="80" height="30" as="geometry" />
        </mxCell>
        <mxCell id="8pSa43I6UidACVbnx78g-12" value="Admin View" style="text;html=1;align=center;verticalAlign=middle;resizable=0;points=[];autosize=1;strokeColor=none;fillColor=none;" vertex="1" parent="1">
          <mxGeometry x="1095" y="510" width="90" height="30" as="geometry" />
        </mxCell>
        <mxCell id="8pSa43I6UidACVbnx78g-13" value="" style="endArrow=none;html=1;rounded=0;entryX=1;entryY=0.75;entryDx=0;entryDy=0;exitX=0;exitY=0.75;exitDx=0;exitDy=0;" edge="1" parent="1" source="8pSa43I6UidACVbnx78g-7" target="8pSa43I6UidACVbnx78g-7">
          <mxGeometry width="50" height="50" relative="1" as="geometry">
            <mxPoint x="1340" y="678" as="sourcePoint" />
            <mxPoint x="1540" y="700" as="targetPoint" />
          </mxGeometry>
        </mxCell>
        <mxCell id="8pSa43I6UidACVbnx78g-15" value="Profile" style="swimlane;whiteSpace=wrap;html=1;startSize=70;" vertex="1" parent="1">
          <mxGeometry x="1245" y="-960" width="290" height="355" as="geometry" />
        </mxCell>
        <mxCell id="8pSa43I6UidACVbnx78g-16" value="&lt;font size=&quot;3&quot;&gt;No.of Products&lt;/font&gt;&lt;div&gt;&lt;font size=&quot;3&quot;&gt;Product iD&lt;/font&gt;&lt;/div&gt;&lt;div&gt;&lt;font size=&quot;3&quot;&gt;Product_Description&lt;/font&gt;&lt;/div&gt;&lt;div&gt;&lt;font size=&quot;3&quot;&gt;Product_Price&lt;/font&gt;&lt;/div&gt;" style="text;html=1;align=center;verticalAlign=middle;resizable=0;points=[];autosize=1;strokeColor=none;fillColor=none;" vertex="1" parent="8pSa43I6UidACVbnx78g-15">
          <mxGeometry x="60" y="155" width="170" height="90" as="geometry" />
        </mxCell>
        <mxCell id="8pSa43I6UidACVbnx78g-17" value="Admin can Product_details_Can edited" style="text;html=1;align=center;verticalAlign=middle;resizable=0;points=[];autosize=1;strokeColor=none;fillColor=none;" vertex="1" parent="8pSa43I6UidACVbnx78g-15">
          <mxGeometry x="40" y="290" width="230" height="30" as="geometry" />
        </mxCell>
        <mxCell id="8pSa43I6UidACVbnx78g-18" value="" style="endArrow=none;html=1;rounded=0;entryX=1;entryY=0.75;entryDx=0;entryDy=0;exitX=0;exitY=0.75;exitDx=0;exitDy=0;" edge="1" parent="1" source="8pSa43I6UidACVbnx78g-15" target="8pSa43I6UidACVbnx78g-15">
          <mxGeometry width="50" height="50" relative="1" as="geometry">
            <mxPoint x="1370" y="-660" as="sourcePoint" />
            <mxPoint x="1420" y="-710" as="targetPoint" />
          </mxGeometry>
        </mxCell>
        <mxCell id="8pSa43I6UidACVbnx78g-20" value="Loan_Status" style="swimlane;whiteSpace=wrap;html=1;startSize=70;" vertex="1" parent="1">
          <mxGeometry x="1680" y="-1510" width="290" height="355" as="geometry" />
        </mxCell>
        <mxCell id="8pSa43I6UidACVbnx78g-21" value="&lt;div&gt;&lt;font size=&quot;3&quot;&gt;Payment_Id&lt;/font&gt;&lt;/div&gt;&lt;div&gt;&lt;font size=&quot;3&quot;&gt;Payment_Method&lt;/font&gt;&lt;/div&gt;&lt;div&gt;&lt;font size=&quot;3&quot;&gt;Payment_Date&lt;/font&gt;&lt;/div&gt;&lt;div&gt;&lt;font size=&quot;3&quot;&gt;Payment_&lt;/font&gt;&lt;/div&gt;" style="text;html=1;align=center;verticalAlign=middle;resizable=0;points=[];autosize=1;strokeColor=none;fillColor=none;" vertex="1" parent="8pSa43I6UidACVbnx78g-20">
          <mxGeometry x="70" y="155" width="150" height="90" as="geometry" />
        </mxCell>
        <mxCell id="8pSa43I6UidACVbnx78g-22" value="USer can fill the details" style="text;html=1;align=center;verticalAlign=middle;resizable=0;points=[];autosize=1;strokeColor=none;fillColor=none;" vertex="1" parent="8pSa43I6UidACVbnx78g-20">
          <mxGeometry x="80" y="290" width="150" height="30" as="geometry" />
        </mxCell>
        <mxCell id="8pSa43I6UidACVbnx78g-24" value="" style="endArrow=none;html=1;rounded=0;exitX=0;exitY=0.75;exitDx=0;exitDy=0;entryX=1;entryY=0.75;entryDx=0;entryDy=0;" edge="1" parent="1" source="8pSa43I6UidACVbnx78g-20" target="8pSa43I6UidACVbnx78g-20">
          <mxGeometry width="50" height="50" relative="1" as="geometry">
            <mxPoint x="1280" y="-1200" as="sourcePoint" />
            <mxPoint x="1330" y="-1250" as="targetPoint" />
          </mxGeometry>
        </mxCell>
        <mxCell id="8pSa43I6UidACVbnx78g-25" value="" style="endArrow=none;html=1;rounded=0;exitX=0;exitY=0.75;exitDx=0;exitDy=0;entryX=1;entryY=0.75;entryDx=0;entryDy=0;" edge="1" parent="1" source="Hggh7xbr4pyCha5w0upt-15" target="Hggh7xbr4pyCha5w0upt-15">
          <mxGeometry width="50" height="50" relative="1" as="geometry">
            <mxPoint x="1310" y="-2110" as="sourcePoint" />
            <mxPoint x="1360" y="-2160" as="targetPoint" />
          </mxGeometry>
        </mxCell>
        <mxCell id="8pSa43I6UidACVbnx78g-26" value="Both(User &amp;amp; Admin) can view" style="text;html=1;align=center;verticalAlign=middle;resizable=0;points=[];autosize=1;strokeColor=none;fillColor=none;" vertex="1" parent="1">
          <mxGeometry x="1310" y="-2122" width="180" height="30" as="geometry" />
        </mxCell>
        <mxCell id="8pSa43I6UidACVbnx78g-27" value="Admin View" style="text;html=1;align=center;verticalAlign=middle;resizable=0;points=[];autosize=1;strokeColor=none;fillColor=none;" vertex="1" parent="1">
          <mxGeometry x="1035" y="-832" width="90" height="30" as="geometry" />
        </mxCell>
        <mxCell id="8pSa43I6UidACVbnx78g-28" value="Admin View" style="text;html=1;align=center;verticalAlign=middle;resizable=0;points=[];autosize=1;strokeColor=none;fillColor=none;" vertex="1" parent="1">
          <mxGeometry x="1080" y="-1830" width="90" height="30" as="geometry" />
        </mxCell>
        <mxCell id="8pSa43I6UidACVbnx78g-29" value="User View" style="text;html=1;align=center;verticalAlign=middle;resizable=0;points=[];autosize=1;strokeColor=none;fillColor=none;" vertex="1" parent="1">
          <mxGeometry x="1080" y="-432" width="80" height="30" as="geometry" />
        </mxCell>
        <mxCell id="8pSa43I6UidACVbnx78g-30" value="User View" style="text;html=1;align=center;verticalAlign=middle;resizable=0;points=[];autosize=1;strokeColor=none;fillColor=none;" vertex="1" parent="1">
          <mxGeometry x="1080" y="-1392" width="80" height="30" as="geometry" />
        </mxCell>
        <mxCell id="8pSa43I6UidACVbnx78g-31" value="User/Admin" style="text;html=1;align=center;verticalAlign=middle;resizable=0;points=[];autosize=1;strokeColor=none;fillColor=none;" vertex="1" parent="1">
          <mxGeometry x="1025" y="-2282" width="90" height="30" as="geometry" />
        </mxCell>
      </root>
    </mxGraphModel>
  </diagram>
</mxfile>
